# xmcd
#
# Track frame offsets: 
#        150
#        11820
#        20695
#        38170
#        48432
#        65442
#        100811
#        116139
#        125260
#        133883
#        146582
#        167340
#        190022
#        201080
#        209573
#        227132
#        243040
#        258430
#        274150
#        288535
#
# Disc length: 4073 seconds
#
# Revision: 0
# Processed by: cddbd v1.5.2PL0 Copyright (c) Steve Scherf et al.
# Submitted via: ExactAudioCopy v1.3
#
DISCID=2a0fe714
DTITLE=Gottfried Böttger, Henning Pertiet - Family Boogie
DYEAR=2016
DGENRE=Blues
TTITLE0=Opening Blues (Duo)
TTITLE1=Boogie Woogie No. 1 (Duo)
TTITLE2=Bluestime! (Pertiet)
TTITLE3=Boogie For You (Pertiet)
TTITLE4=CMP Boogie (Pertiet)
TTITLE5=Lingony Ext (Pertiet)
TTITLE6=Just A Closer Walk With Thee (Duo)
TTITLE7=Sometimes I Feel Like A Motherless Child (Böttger)
TTITLE8=St. Louis Blues (Böttger)
TTITLE9=Jelly Roll Blues (Böttger)
TTITLE10=Sweet Georgia Brown (Böttger)
TTITLE11=Some Of Thees Days (Böttger)
TTITLE12=You Look Good To Me (Böttger)
TTITLE13=3nach9 (Böttger)
TTITLE14=Blues For Richard Tee (Böttger)
TTITLE15=Roosevelt Boogie (Pertiet)
TTITLE16=Chicago Blues (Pertiet)
TTITLE17=Blue Monk (Duo)
TTITLE18=Pioneer Boogie (Duo)
TTITLE19=Maiskorn Blues (Duo)
EXTD=
EXTT0=
EXTT1=
EXTT2=
EXTT3=
EXTT4=
EXTT5=
EXTT6=
EXTT7=
EXTT8=
EXTT9=
EXTT10=
EXTT11=
EXTT12=
EXTT13=
EXTT14=
EXTT15=
EXTT16=
EXTT17=
EXTT18=
EXTT19=
PLAYORDER=
